# xmcd
#
# Track frame offsets:
#	150
#	23913
#	40549
#	60345
#	79517
#	96977
#	114415
#	132793
#	150133
#	172178
#	191440
#	211986
#	231369
#	247374
#	262518
#	291873
#
# Disc length: 3904 seconds
#
# Revision: 1
# Processed by: cddbd v1.5.1PL2 Copyright (c) Steve Scherf et al.
# Submitted via: audiograbber 1.83.01
#
DISCID=cc0f3e10
DTITLE=Sound Choice - SC8887
DYEAR=1900
DGENRE=Karaoke
TTITLE0=Kenney Chesney and Uncle Kracker - When The Sun Goes Down
TTITLE1=Kenney Chesney - When I Close My Eyes
TTITLE2=Kenney Chesney - I Go Back
TTITLE3=Kenney Chesney - Young
TTITLE4=Kenney Chesney - She's Got It All
TTITLE5=Kenney Chesney - Don't Happen Twice
TTITLE6=Kenney Chesney - You Had Me From Hello
TTITLE7=Kenney Chesney - No Shoes, No Shirt, No Problems
TTITLE8=Kenney Chesney - A Lot Of Things Different
TTITLE9=Kenney Chesney - That's Why I'm Here
TTITLE10=Kenney Chesney - There Goes My Life
TTITLE11=Kenney Chesney - Big Star
TTITLE12=Kenney Chesney - The Good Stuff
TTITLE13=Kenney Chesney - How Forever Feels
TTITLE14=Kenney Chesney - She Thinks My Tractor's Sexy
TTITLE15=Data - Data Track
EXTD=
EXTT0=
EXTT1=
EXTT2=
EXTT3=
EXTT4=
EXTT5=
EXTT6=
EXTT7=
EXTT8=
EXTT9=
EXTT10=
EXTT11=
EXTT12=
EXTT13=
EXTT14=
EXTT15=
PLAYORDER=
